<svg xmlns:xlink="http://www.w3.org/1999/xlink" class="svg-image" role="img" style="width:inherit;height:inherit;line-height:inherit;color:inherit;" xmlns="http://www.w3.org/2000/svg" viewBox="0 0 200 200" width="200" height="200"><path d="M100 20c-44.1 0-80 35.9-80 80s35.9 80 80 80s80-35.9 80-80s-35.9-80-80-80zm0 150c-38.6 0-70-31.4-70-70s31.4-70 70-70s70 31.4 70 70s-31.4 70-70 70z" fill="#150127"></path><path d="M140 70c0-5.5-4.5-10-10-10s-10 4.5-10 10c0 3.7 2 6.9 5 8.6V95h-20V78.6c3-1.7 5-5 5-8.6c0-5.5-4.5-10-10-10s-10 4.5-10 10c0 3.7 2 6.9 5 8.6V95H75V78.6c3-1.7 5-5 5-8.6c0-5.5-4.5-10-10-10s-10 4.5-10 10c0 3.7 2 6.9 5 8.6V100c0 2.8 2.2 5 5 5h25v16.4c-3 1.7-5 5-5 8.6c0 5.5 4.5 10 10 10s10-4.5 10-10c0-3.7-2-6.9-5-8.6V105h20v16.4c-3 1.7-5 5-5 8.6c0 5.5 4.5 10 10 10s10-4.5 10-10c0-3.7-2-6.9-5-8.6V78.6c3-1.7 5-4.9 5-8.6z" fill="#150127"></path></svg>